<?xml version="1.0" encoding="utf-8" standalone="no"?>
<!DOCTYPE svg PUBLIC "-//W3C//DTD SVG 1.1//EN"
  "http://www.w3.org/Graphics/SVG/1.1/DTD/svg11.dtd">
<svg xmlns:xlink="http://www.w3.org/1999/xlink" width="518.4pt" height="432pt" viewBox="0 0 518.4 432" xmlns="http://www.w3.org/2000/svg" version="1.1">
 <metadata>
  <rdf:RDF xmlns:dc="http://purl.org/dc/elements/1.1/" xmlns:cc="http://creativecommons.org/ns#" xmlns:rdf="http://www.w3.org/1999/02/22-rdf-syntax-ns#">
   <cc:Work>
    <dc:type rdf:resource="http://purl.org/dc/dcmitype/StillImage"/>
    <dc:date>2026-02-16T17:47:15.986683</dc:date>
    <dc:format>image/svg+xml</dc:format>
    <dc:creator>
     <cc:Agent>
      <dc:title>Matplotlib v3.5.1, https://matplotlib.org/</dc:title>
     </cc:Agent>
    </dc:creator>
   </cc:Work>
  </rdf:RDF>
 </metadata>
 <defs>
  <style type="text/css">*{stroke-linejoin: round; stroke-linecap: butt}</style>
 </defs>
 <g id="figure_1">
  <g id="patch_1">
   <path d="M 0 432 
L 518.4 432 
L 518.4 0 
L 0 0 
z
" style="fill: #ffffff"/>
  </g>
  <g id="axes_1">
   <g id="patch_2">
    <path d="M 62.57 390.04 
L 507.6 390.04 
L 507.6 25.44 
L 62.57 25.44 
z
" style="fill: #ffffff"/>
   </g>
   <g id="matplotlib.axis_1">
    <g id="xtick_1">
     <g id="line2d_1">
      <path d="M 97.828826 390.04 
L 97.828826 25.44 
" clip-path="url(#p5c08d99eeb)" style="fill: none; stroke: #b0b0b0; stroke-opacity: 0.28; stroke-width: 0.8; stroke-linecap: square"/>
     </g>
     <g id="line2d_2">
      <defs>
       <path id="mb0ed524bcf" d="M 0 0 
L 0 3.5 
" style="stroke: #000000; stroke-width: 0.8"/>
      </defs>
      <g>
       <use xlink:href="#mb0ed524bcf" x="97.828826" y="390.04" style="stroke: #000000; stroke-width: 0.8"/>
      </g>
     </g>
     <g id="text_1">
      <!-- −1.5 -->
      <g transform="translate(85.687419 404.638438)scale(0.1 -0.1)">
       <defs>
        <path id="DejaVuSans-2212" d="M 678 2272 
L 4684 2272 
L 4684 1741 
L 678 1741 
L 678 2272 
z
" transform="scale(0.015625)"/>
        <path id="DejaVuSans-31" d="M 794 531 
L 1825 531 
L 1825 4091 
L 703 3866 
L 703 4441 
L 1819 4666 
L 2450 4666 
L 2450 531 
L 3481 531 
L 3481 0 
L 794 0 
L 794 531 
z
" transform="scale(0.015625)"/>
        <path id="DejaVuSans-2e" d="M 684 794 
L 1344 794 
L 1344 0 
L 684 0 
L 684 794 
z
" transform="scale(0.015625)"/>
        <path id="DejaVuSans-35" d="M 691 4666 
L 3169 4666 
L 3169 4134 
L 1269 4134 
L 1269 2991 
Q 1406 3038 1543 3061 
Q 1681 3084 1819 3084 
Q 2600 3084 3056 2656 
Q 3513 2228 3513 1497 
Q 3513 744 3044 326 
Q 2575 -91 1722 -91 
Q 1428 -91 1123 -41 
Q 819 9 494 109 
L 494 744 
Q 775 591 1075 516 
Q 1375 441 1709 441 
Q 2250 441 2565 725 
Q 2881 1009 2881 1497 
Q 2881 1984 2565 2268 
Q 2250 2553 1709 2553 
Q 1456 2553 1204 2497 
Q 953 2441 691 2322 
L 691 4666 
z
" transform="scale(0.015625)"/>
       </defs>
       <use xlink:href="#DejaVuSans-2212"/>
       <use xlink:href="#DejaVuSans-31" x="83.789062"/>
       <use xlink:href="#DejaVuSans-2e" x="147.412109"/>
       <use xlink:href="#DejaVuSans-35" x="179.199219"/>
      </g>
     </g>
    </g>
    <g id="xtick_2">
     <g id="line2d_3">
      <path d="M 185.053563 390.04 
L 185.053563 25.44 
" clip-path="url(#p5c08d99eeb)" style="fill: none; stroke: #b0b0b0; stroke-opacity: 0.28; stroke-width: 0.8; stroke-linecap: square"/>
     </g>
     <g id="line2d_4">
      <g>
       <use xlink:href="#mb0ed524bcf" x="185.053563" y="390.04" style="stroke: #000000; stroke-width: 0.8"/>
      </g>
     </g>
     <g id="text_2">
      <!-- −1.0 -->
      <g transform="translate(172.912157 404.638438)scale(0.1 -0.1)">
       <defs>
        <path id="DejaVuSans-30" d="M 2034 4250 
Q 1547 4250 1301 3770 
Q 1056 3291 1056 2328 
Q 1056 1369 1301 889 
Q 1547 409 2034 409 
Q 2525 409 2770 889 
Q 3016 1369 3016 2328 
Q 3016 3291 2770 3770 
Q 2525 4250 2034 4250 
z
M 2034 4750 
Q 2819 4750 3233 4129 
Q 3647 3509 3647 2328 
Q 3647 1150 3233 529 
Q 2819 -91 2034 -91 
Q 1250 -91 836 529 
Q 422 1150 422 2328 
Q 422 3509 836 4129 
Q 1250 4750 2034 4750 
z
" transform="scale(0.015625)"/>
       </defs>
       <use xlink:href="#DejaVuSans-2212"/>
       <use xlink:href="#DejaVuSans-31" x="83.789062"/>
       <use xlink:href="#DejaVuSans-2e" x="147.412109"/>
       <use xlink:href="#DejaVuSans-30" x="179.199219"/>
      </g>
     </g>
    </g>
    <g id="xtick_3">
     <g id="line2d_5">
      <path d="M 272.278301 390.04 
L 272.278301 25.44 
" clip-path="url(#p5c08d99eeb)" style="fill: none; stroke: #b0b0b0; stroke-opacity: 0.28; stroke-width: 0.8; stroke-linecap: square"/>
     </g>
     <g id="line2d_6">
      <g>
       <use xlink:href="#mb0ed524bcf" x="272.278301" y="390.04" style="stroke: #000000; stroke-width: 0.8"/>
      </g>
     </g>
     <g id="text_3">
      <!-- −0.5 -->
      <g transform="translate(260.136895 404.638438)scale(0.1 -0.1)">
       <use xlink:href="#DejaVuSans-2212"/>
       <use xlink:href="#DejaVuSans-30" x="83.789062"/>
       <use xlink:href="#DejaVuSans-2e" x="147.412109"/>
       <use xlink:href="#DejaVuSans-35" x="179.199219"/>
      </g>
     </g>
    </g>
    <g id="xtick_4">
     <g id="line2d_7">
      <path d="M 359.503039 390.04 
L 359.503039 25.44 
" clip-path="url(#p5c08d99eeb)" style="fill: none; stroke: #b0b0b0; stroke-opacity: 0.28; stroke-width: 0.8; stroke-linecap: square"/>
     </g>
     <g id="line2d_8">
      <g>
       <use xlink:href="#mb0ed524bcf" x="359.503039" y="390.04" style="stroke: #000000; stroke-width: 0.8"/>
      </g>
     </g>
     <g id="text_4">
      <!-- 0.0 -->
      <g transform="translate(351.551476 404.638438)scale(0.1 -0.1)">
       <use xlink:href="#DejaVuSans-30"/>
       <use xlink:href="#DejaVuSans-2e" x="63.623047"/>
       <use xlink:href="#DejaVuSans-30" x="95.410156"/>
      </g>
     </g>
    </g>
    <g id="xtick_5">
     <g id="line2d_9">
      <path d="M 446.727776 390.04 
L 446.727776 25.44 
" clip-path="url(#p5c08d99eeb)" style="fill: none; stroke: #b0b0b0; stroke-opacity: 0.28; stroke-width: 0.8; stroke-linecap: square"/>
     </g>
     <g id="line2d_10">
      <g>
       <use xlink:href="#mb0ed524bcf" x="446.727776" y="390.04" style="stroke: #000000; stroke-width: 0.8"/>
      </g>
     </g>
     <g id="text_5">
      <!-- 0.5 -->
      <g transform="translate(438.776214 404.638438)scale(0.1 -0.1)">
       <use xlink:href="#DejaVuSans-30"/>
       <use xlink:href="#DejaVuSans-2e" x="63.623047"/>
       <use xlink:href="#DejaVuSans-35" x="95.410156"/>
      </g>
     </g>
    </g>
    <g id="text_6">
     <!-- X [m] -->
     <g transform="translate(271.299062 418.316562)scale(0.1 -0.1)">
      <defs>
       <path id="DejaVuSans-58" d="M 403 4666 
L 1081 4666 
L 2241 2931 
L 3406 4666 
L 4084 4666 
L 2584 2425 
L 4184 0 
L 3506 0 
L 2194 1984 
L 872 0 
L 191 0 
L 1856 2491 
L 403 4666 
z
" transform="scale(0.015625)"/>
       <path id="DejaVuSans-20" transform="scale(0.015625)"/>
       <path id="DejaVuSans-5b" d="M 550 4863 
L 1875 4863 
L 1875 4416 
L 1125 4416 
L 1125 -397 
L 1875 -397 
L 1875 -844 
L 550 -844 
L 550 4863 
z
" transform="scale(0.015625)"/>
       <path id="DejaVuSans-6d" d="M 3328 2828 
Q 3544 3216 3844 3400 
Q 4144 3584 4550 3584 
Q 5097 3584 5394 3201 
Q 5691 2819 5691 2113 
L 5691 0 
L 5113 0 
L 5113 2094 
Q 5113 2597 4934 2840 
Q 4756 3084 4391 3084 
Q 3944 3084 3684 2787 
Q 3425 2491 3425 1978 
L 3425 0 
L 2847 0 
L 2847 2094 
Q 2847 2600 2669 2842 
Q 2491 3084 2119 3084 
Q 1678 3084 1418 2786 
Q 1159 2488 1159 1978 
L 1159 0 
L 581 0 
L 581 3500 
L 1159 3500 
L 1159 2956 
Q 1356 3278 1631 3431 
Q 1906 3584 2284 3584 
Q 2666 3584 2933 3390 
Q 3200 3197 3328 2828 
z
" transform="scale(0.015625)"/>
       <path id="DejaVuSans-5d" d="M 1947 4863 
L 1947 -844 
L 622 -844 
L 622 -397 
L 1369 -397 
L 1369 4416 
L 622 4416 
L 622 4863 
L 1947 4863 
z
" transform="scale(0.015625)"/>
      </defs>
      <use xlink:href="#DejaVuSans-58"/>
      <use xlink:href="#DejaVuSans-20" x="68.505859"/>
      <use xlink:href="#DejaVuSans-5b" x="100.292969"/>
      <use xlink:href="#DejaVuSans-6d" x="139.306641"/>
      <use xlink:href="#DejaVuSans-5d" x="236.71875"/>
     </g>
    </g>
   </g>
   <g id="matplotlib.axis_2">
    <g id="ytick_1">
     <g id="line2d_11">
      <path d="M 62.57 381.280844 
L 507.6 381.280844 
" clip-path="url(#p5c08d99eeb)" style="fill: none; stroke: #b0b0b0; stroke-opacity: 0.28; stroke-width: 0.8; stroke-linecap: square"/>
     </g>
     <g id="line2d_12">
      <defs>
       <path id="mb1c7457916" d="M 0 0 
L -3.5 0 
" style="stroke: #000000; stroke-width: 0.8"/>
      </defs>
      <g>
       <use xlink:href="#mb1c7457916" x="62.57" y="381.280844" style="stroke: #000000; stroke-width: 0.8"/>
      </g>
     </g>
     <g id="text_7">
      <!-- −0.25 -->
      <g transform="translate(24.924688 385.080063)scale(0.1 -0.1)">
       <defs>
        <path id="DejaVuSans-32" d="M 1228 531 
L 3431 531 
L 3431 0 
L 469 0 
L 469 531 
Q 828 903 1448 1529 
Q 2069 2156 2228 2338 
Q 2531 2678 2651 2914 
Q 2772 3150 2772 3378 
Q 2772 3750 2511 3984 
Q 2250 4219 1831 4219 
Q 1534 4219 1204 4116 
Q 875 4013 500 3803 
L 500 4441 
Q 881 4594 1212 4672 
Q 1544 4750 1819 4750 
Q 2544 4750 2975 4387 
Q 3406 4025 3406 3419 
Q 3406 3131 3298 2873 
Q 3191 2616 2906 2266 
Q 2828 2175 2409 1742 
Q 1991 1309 1228 531 
z
" transform="scale(0.015625)"/>
       </defs>
       <use xlink:href="#DejaVuSans-2212"/>
       <use xlink:href="#DejaVuSans-30" x="83.789062"/>
       <use xlink:href="#DejaVuSans-2e" x="147.412109"/>
       <use xlink:href="#DejaVuSans-32" x="179.199219"/>
       <use xlink:href="#DejaVuSans-35" x="242.822266"/>
      </g>
     </g>
    </g>
    <g id="ytick_2">
     <g id="line2d_13">
      <path d="M 62.57 337.668476 
L 507.6 337.668476 
" clip-path="url(#p5c08d99eeb)" style="fill: none; stroke: #b0b0b0; stroke-opacity: 0.28; stroke-width: 0.8; stroke-linecap: square"/>
     </g>
     <g id="line2d_14">
      <g>
       <use xlink:href="#mb1c7457916" x="62.57" y="337.668476" style="stroke: #000000; stroke-width: 0.8"/>
      </g>
     </g>
     <g id="text_8">
      <!-- 0.00 -->
      <g transform="translate(33.304375 341.467694)scale(0.1 -0.1)">
       <use xlink:href="#DejaVuSans-30"/>
       <use xlink:href="#DejaVuSans-2e" x="63.623047"/>
       <use xlink:href="#DejaVuSans-30" x="95.410156"/>
       <use xlink:href="#DejaVuSans-30" x="159.033203"/>
      </g>
     </g>
    </g>
    <g id="ytick_3">
     <g id="line2d_15">
      <path d="M 62.57 294.056107 
L 507.6 294.056107 
" clip-path="url(#p5c08d99eeb)" style="fill: none; stroke: #b0b0b0; stroke-opacity: 0.28; stroke-width: 0.8; stroke-linecap: square"/>
     </g>
     <g id="line2d_16">
      <g>
       <use xlink:href="#mb1c7457916" x="62.57" y="294.056107" style="stroke: #000000; stroke-width: 0.8"/>
      </g>
     </g>
     <g id="text_9">
      <!-- 0.25 -->
      <g transform="translate(33.304375 297.855325)scale(0.1 -0.1)">
       <use xlink:href="#DejaVuSans-30"/>
       <use xlink:href="#DejaVuSans-2e" x="63.623047"/>
       <use xlink:href="#DejaVuSans-32" x="95.410156"/>
       <use xlink:href="#DejaVuSans-35" x="159.033203"/>
      </g>
     </g>
    </g>
    <g id="ytick_4">
     <g id="line2d_17">
      <path d="M 62.57 250.443738 
L 507.6 250.443738 
" clip-path="url(#p5c08d99eeb)" style="fill: none; stroke: #b0b0b0; stroke-opacity: 0.28; stroke-width: 0.8; stroke-linecap: square"/>
     </g>
     <g id="line2d_18">
      <g>
       <use xlink:href="#mb1c7457916" x="62.57" y="250.443738" style="stroke: #000000; stroke-width: 0.8"/>
      </g>
     </g>
     <g id="text_10">
      <!-- 0.50 -->
      <g transform="translate(33.304375 254.242957)scale(0.1 -0.1)">
       <use xlink:href="#DejaVuSans-30"/>
       <use xlink:href="#DejaVuSans-2e" x="63.623047"/>
       <use xlink:href="#DejaVuSans-35" x="95.410156"/>
       <use xlink:href="#DejaVuSans-30" x="159.033203"/>
      </g>
     </g>
    </g>
    <g id="ytick_5">
     <g id="line2d_19">
      <path d="M 62.57 206.831369 
L 507.6 206.831369 
" clip-path="url(#p5c08d99eeb)" style="fill: none; stroke: #b0b0b0; stroke-opacity: 0.28; stroke-width: 0.8; stroke-linecap: square"/>
     </g>
     <g id="line2d_20">
      <g>
       <use xlink:href="#mb1c7457916" x="62.57" y="206.831369" style="stroke: #000000; stroke-width: 0.8"/>
      </g>
     </g>
     <g id="text_11">
      <!-- 0.75 -->
      <g transform="translate(33.304375 210.630588)scale(0.1 -0.1)">
       <defs>
        <path id="DejaVuSans-37" d="M 525 4666 
L 3525 4666 
L 3525 4397 
L 1831 0 
L 1172 0 
L 2766 4134 
L 525 4134 
L 525 4666 
z
" transform="scale(0.015625)"/>
       </defs>
       <use xlink:href="#DejaVuSans-30"/>
       <use xlink:href="#DejaVuSans-2e" x="63.623047"/>
       <use xlink:href="#DejaVuSans-37" x="95.410156"/>
       <use xlink:href="#DejaVuSans-35" x="159.033203"/>
      </g>
     </g>
    </g>
    <g id="ytick_6">
     <g id="line2d_21">
      <path d="M 62.57 163.219 
L 507.6 163.219 
" clip-path="url(#p5c08d99eeb)" style="fill: none; stroke: #b0b0b0; stroke-opacity: 0.28; stroke-width: 0.8; stroke-linecap: square"/>
     </g>
     <g id="line2d_22">
      <g>
       <use xlink:href="#mb1c7457916" x="62.57" y="163.219" style="stroke: #000000; stroke-width: 0.8"/>
      </g>
     </g>
     <g id="text_12">
      <!-- 1.00 -->
      <g transform="translate(33.304375 167.018219)scale(0.1 -0.1)">
       <use xlink:href="#DejaVuSans-31"/>
       <use xlink:href="#DejaVuSans-2e" x="63.623047"/>
       <use xlink:href="#DejaVuSans-30" x="95.410156"/>
       <use xlink:href="#DejaVuSans-30" x="159.033203"/>
      </g>
     </g>
    </g>
    <g id="ytick_7">
     <g id="line2d_23">
      <path d="M 62.57 119.606631 
L 507.6 119.606631 
" clip-path="url(#p5c08d99eeb)" style="fill: none; stroke: #b0b0b0; stroke-opacity: 0.28; stroke-width: 0.8; stroke-linecap: square"/>
     </g>
     <g id="line2d_24">
      <g>
       <use xlink:href="#mb1c7457916" x="62.57" y="119.606631" style="stroke: #000000; stroke-width: 0.8"/>
      </g>
     </g>
     <g id="text_13">
      <!-- 1.25 -->
      <g transform="translate(33.304375 123.40585)scale(0.1 -0.1)">
       <use xlink:href="#DejaVuSans-31"/>
       <use xlink:href="#DejaVuSans-2e" x="63.623047"/>
       <use xlink:href="#DejaVuSans-32" x="95.410156"/>
       <use xlink:href="#DejaVuSans-35" x="159.033203"/>
      </g>
     </g>
    </g>
    <g id="ytick_8">
     <g id="line2d_25">
      <path d="M 62.57 75.994262 
L 507.6 75.994262 
" clip-path="url(#p5c08d99eeb)" style="fill: none; stroke: #b0b0b0; stroke-opacity: 0.28; stroke-width: 0.8; stroke-linecap: square"/>
     </g>
     <g id="line2d_26">
      <g>
       <use xlink:href="#mb1c7457916" x="62.57" y="75.994262" style="stroke: #000000; stroke-width: 0.8"/>
      </g>
     </g>
     <g id="text_14">
      <!-- 1.50 -->
      <g transform="translate(33.304375 79.793481)scale(0.1 -0.1)">
       <use xlink:href="#DejaVuSans-31"/>
       <use xlink:href="#DejaVuSans-2e" x="63.623047"/>
       <use xlink:href="#DejaVuSans-35" x="95.410156"/>
       <use xlink:href="#DejaVuSans-30" x="159.033203"/>
      </g>
     </g>
    </g>
    <g id="ytick_9">
     <g id="line2d_27">
      <path d="M 62.57 32.381894 
L 507.6 32.381894 
" clip-path="url(#p5c08d99eeb)" style="fill: none; stroke: #b0b0b0; stroke-opacity: 0.28; stroke-width: 0.8; stroke-linecap: square"/>
     </g>
     <g id="line2d_28">
      <g>
       <use xlink:href="#mb1c7457916" x="62.57" y="32.381894" style="stroke: #000000; stroke-width: 0.8"/>
      </g>
     </g>
     <g id="text_15">
      <!-- 1.75 -->
      <g transform="translate(33.304375 36.181112)scale(0.1 -0.1)">
       <use xlink:href="#DejaVuSans-31"/>
       <use xlink:href="#DejaVuSans-2e" x="63.623047"/>
       <use xlink:href="#DejaVuSans-37" x="95.410156"/>
       <use xlink:href="#DejaVuSans-35" x="159.033203"/>
      </g>
     </g>
    </g>
    <g id="text_16">
     <!-- Z [m] -->
     <g transform="translate(18.845 221.525937)rotate(-90)scale(0.1 -0.1)">
      <defs>
       <path id="DejaVuSans-5a" d="M 359 4666 
L 4025 4666 
L 4025 4184 
L 1075 531 
L 4097 531 
L 4097 0 
L 288 0 
L 288 481 
L 3238 4134 
L 359 4134 
L 359 4666 
z
" transform="scale(0.015625)"/>
      </defs>
      <use xlink:href="#DejaVuSans-5a"/>
      <use xlink:href="#DejaVuSans-20" x="68.505859"/>
      <use xlink:href="#DejaVuSans-5b" x="100.292969"/>
      <use xlink:href="#DejaVuSans-6d" x="139.306641"/>
      <use xlink:href="#DejaVuSans-5d" x="236.71875"/>
     </g>
    </g>
   </g>
   <g id="line2d_29">
    <path d="M 327.044678 135.858936 
L 327.114882 135.754617 
L 327.185479 135.638693 
L 327.257045 135.504237 
L 327.322931 135.352699 
L 327.364477 135.204748 
L 327.345445 135.114036 
L 327.207696 135.178943 
L 326.87277 135.552515 
L 326.246386 136.455196 
L 325.251711 138.198365 
L 323.877825 141.099205 
L 322.262608 145.101745 
L 320.633231 149.835778 
L 319.399396 154.827988 
L 318.969359 160.006463 
L 319.846844 165.565173 
L 322.783502 171.858377 
L 327.331194 179.180658 
L 333.302629 188.073673 
L 339.970759 198.258088 
L 346.606538 208.998225 
L 352.535834 219.679572 
L 357.152851 229.98423 
L 359.64433 238.889621 
L 360.421214 244.565306 
L 360.164744 248.105079 
L 359.246489 250.592737 
L 358.038146 252.494841 
L 356.927081 253.911141 
L 356.074321 254.819921 
L 355.508409 255.320098 
L 355.183798 255.537909 
L 355.03237 255.582874 
L 354.991867 255.535016 
L 355.01475 255.443405 
L 355.070192 255.330764 
L 355.145268 255.200883 
L 355.240271 255.047474 
L 355.366353 254.865338 
L 355.528843 254.66093 
L 355.722043 254.468319 
L 355.914899 254.364428 
L 356.032393 254.487429 
L 355.945446 255.063256 
L 355.448738 256.461161 
L 354.21703 259.369118 
L 351.699408 265.097388 
L 347.017622 272.931283 
L 340.430803 281.578991 
L 333.001356 290.18659 
L 325.083557 298.192005 
L 316.643197 305.270445 
L 307.820523 310.970806 
L 298.875593 315.094773 
L 290.334968 317.630835 
L 282.591839 318.623384 
L 275.577398 318.566218 
L 268.875426 317.679331 
L 262.07189 316.004187 
L 254.983882 313.539933 
L 247.756954 310.54437 
L 240.860184 307.462462 
L 234.550291 304.56837 
L 228.966018 302.004811 
L 224.703698 300.050442 
L 221.691169 298.688753 
L 219.348707 297.659731 
L 217.156644 296.611978 
L 214.688186 295.127398 
L 211.649222 292.648269 
L 208.051754 288.413637 
L 204.141969 281.37156 
L 200.366847 272.2451 
L 197.525388 262.163472 
L 197.229442 251.792638 
L 200.428638 241.305784 
L 204.95281 230.960176 
L 209.826804 221.293855 
L 214.794112 212.498752 
L 219.896249 204.268645 
L 225.294526 196.296423 
L 231.186611 188.428183 
L 237.584425 180.735864 
L 244.296123 173.545629 
L 251.44842 166.830616 
L 259.166268 160.416087 
L 267.227367 154.387657 
L 275.102124 149.317174 
L 282.569362 145.424046 
L 289.536166 142.642002 
L 296.162146 140.679226 
L 302.377822 139.428246 
L 308.030552 138.827507 
L 313.304792 138.745259 
L 318.407969 139.049474 
L 323.332817 139.614012 
L 327.760542 140.296656 
" clip-path="url(#p5c08d99eeb)" style="fill: none; stroke: #000000; stroke-width: 2.2; stroke-linecap: square"/>
   </g>
   <g id="patch_3">
    <path d="M 62.57 390.04 
L 62.57 25.44 
" style="fill: none; stroke: #000000; stroke-width: 0.8; stroke-linejoin: miter; stroke-linecap: square"/>
   </g>
   <g id="patch_4">
    <path d="M 507.6 390.04 
L 507.6 25.44 
" style="fill: none; stroke: #000000; stroke-width: 0.8; stroke-linejoin: miter; stroke-linecap: square"/>
   </g>
   <g id="patch_5">
    <path d="M 62.57 390.04 
L 507.6 390.04 
" style="fill: none; stroke: #000000; stroke-width: 0.8; stroke-linejoin: miter; stroke-linecap: square"/>
   </g>
   <g id="patch_6">
    <path d="M 62.57 25.44 
L 507.6 25.44 
" style="fill: none; stroke: #000000; stroke-width: 0.8; stroke-linejoin: miter; stroke-linecap: square"/>
   </g>
   <g id="PathCollection_1">
    <defs>
     <path id="m7a483ce079" d="M 0 2.54951 
C 0.676138 2.54951 1.324674 2.280877 1.802776 1.802776 
C 2.280877 1.324674 2.54951 0.676138 2.54951 0 
C 2.54951 -0.676138 2.280877 -1.324674 1.802776 -1.802776 
C 1.324674 -2.280877 0.676138 -2.54951 0 -2.54951 
C -0.676138 -2.54951 -1.324674 -2.280877 -1.802776 -1.802776 
C -2.280877 -1.324674 -2.54951 -0.676138 -2.54951 0 
C -2.54951 0.676138 -2.280877 1.324674 -1.802776 1.802776 
C -1.324674 2.280877 -0.676138 2.54951 0 2.54951 
z
" style="stroke: #ffa500"/>
    </defs>
    <g clip-path="url(#p5c08d99eeb)">
     <use xlink:href="#m7a483ce079" x="170.443869" y="239.917626" style="fill: #ffa500; stroke: #ffa500"/>
     <use xlink:href="#m7a483ce079" x="277.287532" y="229.042793" style="fill: #ffa500; stroke: #ffa500"/>
     <use xlink:href="#m7a483ce079" x="403.838263" y="267.113374" style="fill: #ffa500; stroke: #ffa500"/>
     <use xlink:href="#m7a483ce079" x="318.239176" y="238.168375" style="fill: #ffa500; stroke: #ffa500"/>
     <use xlink:href="#m7a483ce079" x="415.187186" y="225.992399" style="fill: #ffa500; stroke: #ffa500"/>
     <use xlink:href="#m7a483ce079" x="359.503039" y="337.668476" style="fill: #ffa500; stroke: #ffa500"/>
     <use xlink:href="#m7a483ce079" x="384.899405" y="304.053377" style="fill: #ffa500; stroke: #ffa500"/>
     <use xlink:href="#m7a483ce079" x="289.671138" y="356.022809" style="fill: #ffa500; stroke: #ffa500"/>
     <use xlink:href="#m7a483ce079" x="260.457608" y="346.284029" style="fill: #ffa500; stroke: #ffa500"/>
     <use xlink:href="#m7a483ce079" x="219.849291" y="333.35766" style="fill: #ffa500; stroke: #ffa500"/>
     <use xlink:href="#m7a483ce079" x="154.982814" y="276.615771" style="fill: #ffa500; stroke: #ffa500"/>
     <use xlink:href="#m7a483ce079" x="394.588001" y="153.720244" style="fill: #ffa500; stroke: #ffa500"/>
     <use xlink:href="#m7a483ce079" x="415.000506" y="190.548622" style="fill: #ffa500; stroke: #ffa500"/>
     <use xlink:href="#m7a483ce079" x="174.315935" y="314.178189" style="fill: #ffa500; stroke: #ffa500"/>
     <use xlink:href="#m7a483ce079" x="297.121467" y="117.271847" style="fill: #ffa500; stroke: #ffa500"/>
     <use xlink:href="#m7a483ce079" x="330.924494" y="357.988188" style="fill: #ffa500; stroke: #ffa500"/>
     <use xlink:href="#m7a483ce079" x="254.513703" y="114.0428" style="fill: #ffa500; stroke: #ffa500"/>
     <use xlink:href="#m7a483ce079" x="360.395785" y="83.352535" style="fill: #ffa500; stroke: #ffa500"/>
     <use xlink:href="#m7a483ce079" x="229.396056" y="115.627631" style="fill: #ffa500; stroke: #ffa500"/>
     <use xlink:href="#m7a483ce079" x="189.28554" y="199.949091" style="fill: #ffa500; stroke: #ffa500"/>
    </g>
   </g>
   <g id="text_17">
    <!-- tag36h11:3 -->
    <g style="fill: #daa520" transform="translate(407.799145 262.364429)scale(0.07 -0.07)">
     <defs>
      <path id="DejaVuSans-74" d="M 1172 4494 
L 1172 3500 
L 2356 3500 
L 2356 3053 
L 1172 3053 
L 1172 1153 
Q 1172 725 1289 603 
Q 1406 481 1766 481 
L 2356 481 
L 2356 0 
L 1766 0 
Q 1100 0 847 248 
Q 594 497 594 1153 
L 594 3053 
L 172 3053 
L 172 3500 
L 594 3500 
L 594 4494 
L 1172 4494 
z
" transform="scale(0.015625)"/>
      <path id="DejaVuSans-61" d="M 2194 1759 
Q 1497 1759 1228 1600 
Q 959 1441 959 1056 
Q 959 750 1161 570 
Q 1363 391 1709 391 
Q 2188 391 2477 730 
Q 2766 1069 2766 1631 
L 2766 1759 
L 2194 1759 
z
M 3341 1997 
L 3341 0 
L 2766 0 
L 2766 531 
Q 2569 213 2275 61 
Q 1981 -91 1556 -91 
Q 1019 -91 701 211 
Q 384 513 384 1019 
Q 384 1609 779 1909 
Q 1175 2209 1959 2209 
L 2766 2209 
L 2766 2266 
Q 2766 2663 2505 2880 
Q 2244 3097 1772 3097 
Q 1472 3097 1187 3025 
Q 903 2953 641 2809 
L 641 3341 
Q 956 3463 1253 3523 
Q 1550 3584 1831 3584 
Q 2591 3584 2966 3190 
Q 3341 2797 3341 1997 
z
" transform="scale(0.015625)"/>
      <path id="DejaVuSans-67" d="M 2906 1791 
Q 2906 2416 2648 2759 
Q 2391 3103 1925 3103 
Q 1463 3103 1205 2759 
Q 947 2416 947 1791 
Q 947 1169 1205 825 
Q 1463 481 1925 481 
Q 2391 481 2648 825 
Q 2906 1169 2906 1791 
z
M 3481 434 
Q 3481 -459 3084 -895 
Q 2688 -1331 1869 -1331 
Q 1566 -1331 1297 -1286 
Q 1028 -1241 775 -1147 
L 775 -588 
Q 1028 -725 1275 -790 
Q 1522 -856 1778 -856 
Q 2344 -856 2625 -561 
Q 2906 -266 2906 331 
L 2906 616 
Q 2728 306 2450 153 
Q 2172 0 1784 0 
Q 1141 0 747 490 
Q 353 981 353 1791 
Q 353 2603 747 3093 
Q 1141 3584 1784 3584 
Q 2172 3584 2450 3431 
Q 2728 3278 2906 2969 
L 2906 3500 
L 3481 3500 
L 3481 434 
z
" transform="scale(0.015625)"/>
      <path id="DejaVuSans-33" d="M 2597 2516 
Q 3050 2419 3304 2112 
Q 3559 1806 3559 1356 
Q 3559 666 3084 287 
Q 2609 -91 1734 -91 
Q 1441 -91 1130 -33 
Q 819 25 488 141 
L 488 750 
Q 750 597 1062 519 
Q 1375 441 1716 441 
Q 2309 441 2620 675 
Q 2931 909 2931 1356 
Q 2931 1769 2642 2001 
Q 2353 2234 1838 2234 
L 1294 2234 
L 1294 2753 
L 1863 2753 
Q 2328 2753 2575 2939 
Q 2822 3125 2822 3475 
Q 2822 3834 2567 4026 
Q 2313 4219 1838 4219 
Q 1578 4219 1281 4162 
Q 984 4106 628 3988 
L 628 4550 
Q 988 4650 1302 4700 
Q 1616 4750 1894 4750 
Q 2613 4750 3031 4423 
Q 3450 4097 3450 3541 
Q 3450 3153 3228 2886 
Q 3006 2619 2597 2516 
z
" transform="scale(0.015625)"/>
      <path id="DejaVuSans-36" d="M 2113 2584 
Q 1688 2584 1439 2293 
Q 1191 2003 1191 1497 
Q 1191 994 1439 701 
Q 1688 409 2113 409 
Q 2538 409 2786 701 
Q 3034 994 3034 1497 
Q 3034 2003 2786 2293 
Q 2538 2584 2113 2584 
z
M 3366 4563 
L 3366 3988 
Q 3128 4100 2886 4159 
Q 2644 4219 2406 4219 
Q 1781 4219 1451 3797 
Q 1122 3375 1075 2522 
Q 1259 2794 1537 2939 
Q 1816 3084 2150 3084 
Q 2853 3084 3261 2657 
Q 3669 2231 3669 1497 
Q 3669 778 3244 343 
Q 2819 -91 2113 -91 
Q 1303 -91 875 529 
Q 447 1150 447 2328 
Q 447 3434 972 4092 
Q 1497 4750 2381 4750 
Q 2619 4750 2861 4703 
Q 3103 4656 3366 4563 
z
" transform="scale(0.015625)"/>
      <path id="DejaVuSans-68" d="M 3513 2113 
L 3513 0 
L 2938 0 
L 2938 2094 
Q 2938 2591 2744 2837 
Q 2550 3084 2163 3084 
Q 1697 3084 1428 2787 
Q 1159 2491 1159 1978 
L 1159 0 
L 581 0 
L 581 4863 
L 1159 4863 
L 1159 2956 
Q 1366 3272 1645 3428 
Q 1925 3584 2291 3584 
Q 2894 3584 3203 3211 
Q 3513 2838 3513 2113 
z
" transform="scale(0.015625)"/>
      <path id="DejaVuSans-3a" d="M 750 794 
L 1409 794 
L 1409 0 
L 750 0 
L 750 794 
z
M 750 3309 
L 1409 3309 
L 1409 2516 
L 750 2516 
L 750 3309 
z
" transform="scale(0.015625)"/>
     </defs>
     <use xlink:href="#DejaVuSans-74"/>
     <use xlink:href="#DejaVuSans-61" x="39.208984"/>
     <use xlink:href="#DejaVuSans-67" x="100.488281"/>
     <use xlink:href="#DejaVuSans-33" x="163.964844"/>
     <use xlink:href="#DejaVuSans-36" x="227.587891"/>
     <use xlink:href="#DejaVuSans-68" x="291.210938"/>
     <use xlink:href="#DejaVuSans-31" x="354.589844"/>
     <use xlink:href="#DejaVuSans-31" x="418.212891"/>
     <use xlink:href="#DejaVuSans-3a" x="481.835938"/>
     <use xlink:href="#DejaVuSans-33" x="515.527344"/>
    </g>
    <!-- 6.6deg -->
    <g style="fill: #daa520" transform="translate(407.799145 270.202898)scale(0.07 -0.07)">
     <defs>
      <path id="DejaVuSans-64" d="M 2906 2969 
L 2906 4863 
L 3481 4863 
L 3481 0 
L 2906 0 
L 2906 525 
Q 2725 213 2448 61 
Q 2172 -91 1784 -91 
Q 1150 -91 751 415 
Q 353 922 353 1747 
Q 353 2572 751 3078 
Q 1150 3584 1784 3584 
Q 2172 3584 2448 3432 
Q 2725 3281 2906 2969 
z
M 947 1747 
Q 947 1113 1208 752 
Q 1469 391 1925 391 
Q 2381 391 2643 752 
Q 2906 1113 2906 1747 
Q 2906 2381 2643 2742 
Q 2381 3103 1925 3103 
Q 1469 3103 1208 2742 
Q 947 2381 947 1747 
z
" transform="scale(0.015625)"/>
      <path id="DejaVuSans-65" d="M 3597 1894 
L 3597 1613 
L 953 1613 
Q 991 1019 1311 708 
Q 1631 397 2203 397 
Q 2534 397 2845 478 
Q 3156 559 3463 722 
L 3463 178 
Q 3153 47 2828 -22 
Q 2503 -91 2169 -91 
Q 1331 -91 842 396 
Q 353 884 353 1716 
Q 353 2575 817 3079 
Q 1281 3584 2069 3584 
Q 2775 3584 3186 3129 
Q 3597 2675 3597 1894 
z
M 3022 2063 
Q 3016 2534 2758 2815 
Q 2500 3097 2075 3097 
Q 1594 3097 1305 2825 
Q 1016 2553 972 2059 
L 3022 2063 
z
" transform="scale(0.015625)"/>
     </defs>
     <use xlink:href="#DejaVuSans-36"/>
     <use xlink:href="#DejaVuSans-2e" x="63.623047"/>
     <use xlink:href="#DejaVuSans-36" x="95.410156"/>
     <use xlink:href="#DejaVuSans-64" x="159.033203"/>
     <use xlink:href="#DejaVuSans-65" x="222.509766"/>
     <use xlink:href="#DejaVuSans-67" x="284.033203"/>
    </g>
   </g>
   <g id="text_18">
    <!-- tag36h11:18 -->
    <g style="fill: #daa520" transform="translate(405.433825 192.508194)scale(0.07 -0.07)">
     <defs>
      <path id="DejaVuSans-38" d="M 2034 2216 
Q 1584 2216 1326 1975 
Q 1069 1734 1069 1313 
Q 1069 891 1326 650 
Q 1584 409 2034 409 
Q 2484 409 2743 651 
Q 3003 894 3003 1313 
Q 3003 1734 2745 1975 
Q 2488 2216 2034 2216 
z
M 1403 2484 
Q 997 2584 770 2862 
Q 544 3141 544 3541 
Q 544 4100 942 4425 
Q 1341 4750 2034 4750 
Q 2731 4750 3128 4425 
Q 3525 4100 3525 3541 
Q 3525 3141 3298 2862 
Q 3072 2584 2669 2484 
Q 3125 2378 3379 2068 
Q 3634 1759 3634 1313 
Q 3634 634 3220 271 
Q 2806 -91 2034 -91 
Q 1263 -91 848 271 
Q 434 634 434 1313 
Q 434 1759 690 2068 
Q 947 2378 1403 2484 
z
M 1172 3481 
Q 1172 3119 1398 2916 
Q 1625 2713 2034 2713 
Q 2441 2713 2670 2916 
Q 2900 3119 2900 3481 
Q 2900 3844 2670 4047 
Q 2441 4250 2034 4250 
Q 1625 4250 1398 4047 
Q 1172 3844 1172 3481 
z
" transform="scale(0.015625)"/>
     </defs>
     <use xlink:href="#DejaVuSans-74"/>
     <use xlink:href="#DejaVuSans-61" x="39.208984"/>
     <use xlink:href="#DejaVuSans-67" x="100.488281"/>
     <use xlink:href="#DejaVuSans-33" x="163.964844"/>
     <use xlink:href="#DejaVuSans-36" x="227.587891"/>
     <use xlink:href="#DejaVuSans-68" x="291.210938"/>
     <use xlink:href="#DejaVuSans-31" x="354.589844"/>
     <use xlink:href="#DejaVuSans-31" x="418.212891"/>
     <use xlink:href="#DejaVuSans-3a" x="481.835938"/>
     <use xlink:href="#DejaVuSans-31" x="515.527344"/>
     <use xlink:href="#DejaVuSans-38" x="579.150391"/>
    </g>
    <!-- 7.5deg -->
    <g style="fill: #daa520" transform="translate(405.433825 200.346662)scale(0.07 -0.07)">
     <use xlink:href="#DejaVuSans-37"/>
     <use xlink:href="#DejaVuSans-2e" x="63.623047"/>
     <use xlink:href="#DejaVuSans-35" x="95.410156"/>
     <use xlink:href="#DejaVuSans-64" x="159.033203"/>
     <use xlink:href="#DejaVuSans-65" x="222.509766"/>
     <use xlink:href="#DejaVuSans-67" x="284.033203"/>
    </g>
   </g>
   <g id="text_19">
    <!-- tag36h11:2 -->
    <g style="fill: #daa520" transform="translate(359.503039 329.830007)scale(0.07 -0.07)">
     <use xlink:href="#DejaVuSans-74"/>
     <use xlink:href="#DejaVuSans-61" x="39.208984"/>
     <use xlink:href="#DejaVuSans-67" x="100.488281"/>
     <use xlink:href="#DejaVuSans-33" x="163.964844"/>
     <use xlink:href="#DejaVuSans-36" x="227.587891"/>
     <use xlink:href="#DejaVuSans-68" x="291.210938"/>
     <use xlink:href="#DejaVuSans-31" x="354.589844"/>
     <use xlink:href="#DejaVuSans-31" x="418.212891"/>
     <use xlink:href="#DejaVuSans-3a" x="481.835938"/>
     <use xlink:href="#DejaVuSans-32" x="515.527344"/>
    </g>
    <!-- 19.0deg -->
    <g style="fill: #daa520" transform="translate(359.503039 337.668476)scale(0.07 -0.07)">
     <defs>
      <path id="DejaVuSans-39" d="M 703 97 
L 703 672 
Q 941 559 1184 500 
Q 1428 441 1663 441 
Q 2288 441 2617 861 
Q 2947 1281 2994 2138 
Q 2813 1869 2534 1725 
Q 2256 1581 1919 1581 
Q 1219 1581 811 2004 
Q 403 2428 403 3163 
Q 403 3881 828 4315 
Q 1253 4750 1959 4750 
Q 2769 4750 3195 4129 
Q 3622 3509 3622 2328 
Q 3622 1225 3098 567 
Q 2575 -91 1691 -91 
Q 1453 -91 1209 -44 
Q 966 3 703 97 
z
M 1959 2075 
Q 2384 2075 2632 2365 
Q 2881 2656 2881 3163 
Q 2881 3666 2632 3958 
Q 2384 4250 1959 4250 
Q 1534 4250 1286 3958 
Q 1038 3666 1038 3163 
Q 1038 2656 1286 2365 
Q 1534 2075 1959 2075 
z
" transform="scale(0.015625)"/>
     </defs>
     <use xlink:href="#DejaVuSans-31"/>
     <use xlink:href="#DejaVuSans-39" x="63.623047"/>
     <use xlink:href="#DejaVuSans-2e" x="127.246094"/>
     <use xlink:href="#DejaVuSans-30" x="159.033203"/>
     <use xlink:href="#DejaVuSans-64" x="222.65625"/>
     <use xlink:href="#DejaVuSans-65" x="286.132812"/>
     <use xlink:href="#DejaVuSans-67" x="347.65625"/>
    </g>
   </g>
   <g id="text_20">
    <!-- tag36h11:22 -->
    <g style="fill: #daa520" transform="translate(310.92485 367.38594)scale(0.07 -0.07)">
     <use xlink:href="#DejaVuSans-74"/>
     <use xlink:href="#DejaVuSans-61" x="39.208984"/>
     <use xlink:href="#DejaVuSans-67" x="100.488281"/>
     <use xlink:href="#DejaVuSans-33" x="163.964844"/>
     <use xlink:href="#DejaVuSans-36" x="227.587891"/>
     <use xlink:href="#DejaVuSans-68" x="291.210938"/>
     <use xlink:href="#DejaVuSans-31" x="354.589844"/>
     <use xlink:href="#DejaVuSans-31" x="418.212891"/>
     <use xlink:href="#DejaVuSans-3a" x="481.835938"/>
     <use xlink:href="#DejaVuSans-32" x="515.527344"/>
     <use xlink:href="#DejaVuSans-32" x="579.150391"/>
    </g>
    <!-- 28.5deg -->
    <g style="fill: #daa520" transform="translate(310.92485 375.224409)scale(0.07 -0.07)">
     <use xlink:href="#DejaVuSans-32"/>
     <use xlink:href="#DejaVuSans-38" x="63.623047"/>
     <use xlink:href="#DejaVuSans-2e" x="127.246094"/>
     <use xlink:href="#DejaVuSans-35" x="159.033203"/>
     <use xlink:href="#DejaVuSans-64" x="222.65625"/>
     <use xlink:href="#DejaVuSans-65" x="286.132812"/>
     <use xlink:href="#DejaVuSans-67" x="347.65625"/>
    </g>
   </g>
   <g id="text_21">
    <!-- Point Relocalization vs Optimized Trajectory (Vector Plot) -->
    <g transform="translate(115.07125 19.44)scale(0.12 -0.12)">
     <defs>
      <path id="DejaVuSans-50" d="M 1259 4147 
L 1259 2394 
L 2053 2394 
Q 2494 2394 2734 2622 
Q 2975 2850 2975 3272 
Q 2975 3691 2734 3919 
Q 2494 4147 2053 4147 
L 1259 4147 
z
M 628 4666 
L 2053 4666 
Q 2838 4666 3239 4311 
Q 3641 3956 3641 3272 
Q 3641 2581 3239 2228 
Q 2838 1875 2053 1875 
L 1259 1875 
L 1259 0 
L 628 0 
L 628 4666 
z
" transform="scale(0.015625)"/>
      <path id="DejaVuSans-6f" d="M 1959 3097 
Q 1497 3097 1228 2736 
Q 959 2375 959 1747 
Q 959 1119 1226 758 
Q 1494 397 1959 397 
Q 2419 397 2687 759 
Q 2956 1122 2956 1747 
Q 2956 2369 2687 2733 
Q 2419 3097 1959 3097 
z
M 1959 3584 
Q 2709 3584 3137 3096 
Q 3566 2609 3566 1747 
Q 3566 888 3137 398 
Q 2709 -91 1959 -91 
Q 1206 -91 779 398 
Q 353 888 353 1747 
Q 353 2609 779 3096 
Q 1206 3584 1959 3584 
z
" transform="scale(0.015625)"/>
      <path id="DejaVuSans-69" d="M 603 3500 
L 1178 3500 
L 1178 0 
L 603 0 
L 603 3500 
z
M 603 4863 
L 1178 4863 
L 1178 4134 
L 603 4134 
L 603 4863 
z
" transform="scale(0.015625)"/>
      <path id="DejaVuSans-6e" d="M 3513 2113 
L 3513 0 
L 2938 0 
L 2938 2094 
Q 2938 2591 2744 2837 
Q 2550 3084 2163 3084 
Q 1697 3084 1428 2787 
Q 1159 2491 1159 1978 
L 1159 0 
L 581 0 
L 581 3500 
L 1159 3500 
L 1159 2956 
Q 1366 3272 1645 3428 
Q 1925 3584 2291 3584 
Q 2894 3584 3203 3211 
Q 3513 2838 3513 2113 
z
" transform="scale(0.015625)"/>
      <path id="DejaVuSans-52" d="M 2841 2188 
Q 3044 2119 3236 1894 
Q 3428 1669 3622 1275 
L 4263 0 
L 3584 0 
L 2988 1197 
Q 2756 1666 2539 1819 
Q 2322 1972 1947 1972 
L 1259 1972 
L 1259 0 
L 628 0 
L 628 4666 
L 2053 4666 
Q 2853 4666 3247 4331 
Q 3641 3997 3641 3322 
Q 3641 2881 3436 2590 
Q 3231 2300 2841 2188 
z
M 1259 4147 
L 1259 2491 
L 2053 2491 
Q 2509 2491 2742 2702 
Q 2975 2913 2975 3322 
Q 2975 3731 2742 3939 
Q 2509 4147 2053 4147 
L 1259 4147 
z
" transform="scale(0.015625)"/>
      <path id="DejaVuSans-6c" d="M 603 4863 
L 1178 4863 
L 1178 0 
L 603 0 
L 603 4863 
z
" transform="scale(0.015625)"/>
      <path id="DejaVuSans-63" d="M 3122 3366 
L 3122 2828 
Q 2878 2963 2633 3030 
Q 2388 3097 2138 3097 
Q 1578 3097 1268 2742 
Q 959 2388 959 1747 
Q 959 1106 1268 751 
Q 1578 397 2138 397 
Q 2388 397 2633 464 
Q 2878 531 3122 666 
L 3122 134 
Q 2881 22 2623 -34 
Q 2366 -91 2075 -91 
Q 1284 -91 818 406 
Q 353 903 353 1747 
Q 353 2603 823 3093 
Q 1294 3584 2113 3584 
Q 2378 3584 2631 3529 
Q 2884 3475 3122 3366 
z
" transform="scale(0.015625)"/>
      <path id="DejaVuSans-7a" d="M 353 3500 
L 3084 3500 
L 3084 2975 
L 922 459 
L 3084 459 
L 3084 0 
L 275 0 
L 275 525 
L 2438 3041 
L 353 3041 
L 353 3500 
z
" transform="scale(0.015625)"/>
      <path id="DejaVuSans-76" d="M 191 3500 
L 800 3500 
L 1894 563 
L 2988 3500 
L 3597 3500 
L 2284 0 
L 1503 0 
L 191 3500 
z
" transform="scale(0.015625)"/>
      <path id="DejaVuSans-73" d="M 2834 3397 
L 2834 2853 
Q 2591 2978 2328 3040 
Q 2066 3103 1784 3103 
Q 1356 3103 1142 2972 
Q 928 2841 928 2578 
Q 928 2378 1081 2264 
Q 1234 2150 1697 2047 
L 1894 2003 
Q 2506 1872 2764 1633 
Q 3022 1394 3022 966 
Q 3022 478 2636 193 
Q 2250 -91 1575 -91 
Q 1294 -91 989 -36 
Q 684 19 347 128 
L 347 722 
Q 666 556 975 473 
Q 1284 391 1588 391 
Q 1994 391 2212 530 
Q 2431 669 2431 922 
Q 2431 1156 2273 1281 
Q 2116 1406 1581 1522 
L 1381 1569 
Q 847 1681 609 1914 
Q 372 2147 372 2553 
Q 372 3047 722 3315 
Q 1072 3584 1716 3584 
Q 2034 3584 2315 3537 
Q 2597 3491 2834 3397 
z
" transform="scale(0.015625)"/>
      <path id="DejaVuSans-4f" d="M 2522 4238 
Q 1834 4238 1429 3725 
Q 1025 3213 1025 2328 
Q 1025 1447 1429 934 
Q 1834 422 2522 422 
Q 3209 422 3611 934 
Q 4013 1447 4013 2328 
Q 4013 3213 3611 3725 
Q 3209 4238 2522 4238 
z
M 2522 4750 
Q 3503 4750 4090 4092 
Q 4678 3434 4678 2328 
Q 4678 1225 4090 567 
Q 3503 -91 2522 -91 
Q 1538 -91 948 565 
Q 359 1222 359 2328 
Q 359 3434 948 4092 
Q 1538 4750 2522 4750 
z
" transform="scale(0.015625)"/>
      <path id="DejaVuSans-70" d="M 1159 525 
L 1159 -1331 
L 581 -1331 
L 581 3500 
L 1159 3500 
L 1159 2969 
Q 1341 3281 1617 3432 
Q 1894 3584 2278 3584 
Q 2916 3584 3314 3078 
Q 3713 2572 3713 1747 
Q 3713 922 3314 415 
Q 2916 -91 2278 -91 
Q 1894 -91 1617 61 
Q 1341 213 1159 525 
z
M 3116 1747 
Q 3116 2381 2855 2742 
Q 2594 3103 2138 3103 
Q 1681 3103 1420 2742 
Q 1159 2381 1159 1747 
Q 1159 1113 1420 752 
Q 1681 391 2138 391 
Q 2594 391 2855 752 
Q 3116 1113 3116 1747 
z
" transform="scale(0.015625)"/>
      <path id="DejaVuSans-54" d="M -19 4666 
L 3928 4666 
L 3928 4134 
L 2272 4134 
L 2272 0 
L 1638 0 
L 1638 4134 
L -19 4134 
L -19 4666 
z
" transform="scale(0.015625)"/>
      <path id="DejaVuSans-72" d="M 2631 2963 
Q 2534 3019 2420 3045 
Q 2306 3072 2169 3072 
Q 1681 3072 1420 2755 
Q 1159 2438 1159 1844 
L 1159 0 
L 581 0 
L 581 3500 
L 1159 3500 
L 1159 2956 
Q 1341 3275 1631 3429 
Q 1922 3584 2338 3584 
Q 2397 3584 2469 3576 
Q 2541 3569 2628 3553 
L 2631 2963 
z
" transform="scale(0.015625)"/>
      <path id="DejaVuSans-6a" d="M 603 3500 
L 1178 3500 
L 1178 -63 
Q 1178 -731 923 -1031 
Q 669 -1331 103 -1331 
L -116 -1331 
L -116 -844 
L 38 -844 
Q 366 -844 484 -692 
Q 603 -541 603 -63 
L 603 3500 
z
M 603 4863 
L 1178 4863 
L 1178 4134 
L 603 4134 
L 603 4863 
z
" transform="scale(0.015625)"/>
      <path id="DejaVuSans-79" d="M 2059 -325 
Q 1816 -950 1584 -1140 
Q 1353 -1331 966 -1331 
L 506 -1331 
L 506 -850 
L 844 -850 
Q 1081 -850 1212 -737 
Q 1344 -625 1503 -206 
L 1606 56 
L 191 3500 
L 800 3500 
L 1894 763 
L 2988 3500 
L 3597 3500 
L 2059 -325 
z
" transform="scale(0.015625)"/>
      <path id="DejaVuSans-28" d="M 1984 4856 
Q 1566 4138 1362 3434 
Q 1159 2731 1159 2009 
Q 1159 1288 1364 580 
Q 1569 -128 1984 -844 
L 1484 -844 
Q 1016 -109 783 600 
Q 550 1309 550 2009 
Q 550 2706 781 3412 
Q 1013 4119 1484 4856 
L 1984 4856 
z
" transform="scale(0.015625)"/>
      <path id="DejaVuSans-56" d="M 1831 0 
L 50 4666 
L 709 4666 
L 2188 738 
L 3669 4666 
L 4325 4666 
L 2547 0 
L 1831 0 
z
" transform="scale(0.015625)"/>
      <path id="DejaVuSans-29" d="M 513 4856 
L 1013 4856 
Q 1481 4119 1714 3412 
Q 1947 2706 1947 2009 
Q 1947 1309 1714 600 
Q 1481 -109 1013 -844 
L 513 -844 
Q 928 -128 1133 580 
Q 1338 1288 1338 2009 
Q 1338 2731 1133 3434 
Q 928 4138 513 4856 
z
" transform="scale(0.015625)"/>
     </defs>
     <use xlink:href="#DejaVuSans-50"/>
     <use xlink:href="#DejaVuSans-6f" x="56.677734"/>
     <use xlink:href="#DejaVuSans-69" x="117.859375"/>
     <use xlink:href="#DejaVuSans-6e" x="145.642578"/>
     <use xlink:href="#DejaVuSans-74" x="209.021484"/>
     <use xlink:href="#DejaVuSans-20" x="248.230469"/>
     <use xlink:href="#DejaVuSans-52" x="280.017578"/>
     <use xlink:href="#DejaVuSans-65" x="345"/>
     <use xlink:href="#DejaVuSans-6c" x="406.523438"/>
     <use xlink:href="#DejaVuSans-6f" x="434.306641"/>
     <use xlink:href="#DejaVuSans-63" x="495.488281"/>
     <use xlink:href="#DejaVuSans-61" x="550.46875"/>
     <use xlink:href="#DejaVuSans-6c" x="611.748047"/>
     <use xlink:href="#DejaVuSans-69" x="639.53125"/>
     <use xlink:href="#DejaVuSans-7a" x="667.314453"/>
     <use xlink:href="#DejaVuSans-61" x="719.804688"/>
     <use xlink:href="#DejaVuSans-74" x="781.083984"/>
     <use xlink:href="#DejaVuSans-69" x="820.292969"/>
     <use xlink:href="#DejaVuSans-6f" x="848.076172"/>
     <use xlink:href="#DejaVuSans-6e" x="909.257812"/>
     <use xlink:href="#DejaVuSans-20" x="972.636719"/>
     <use xlink:href="#DejaVuSans-76" x="1004.423828"/>
     <use xlink:href="#DejaVuSans-73" x="1063.603516"/>
     <use xlink:href="#DejaVuSans-20" x="1115.703125"/>
     <use xlink:href="#DejaVuSans-4f" x="1147.490234"/>
     <use xlink:href="#DejaVuSans-70" x="1226.201172"/>
     <use xlink:href="#DejaVuSans-74" x="1289.677734"/>
     <use xlink:href="#DejaVuSans-69" x="1328.886719"/>
     <use xlink:href="#DejaVuSans-6d" x="1356.669922"/>
     <use xlink:href="#DejaVuSans-69" x="1454.082031"/>
     <use xlink:href="#DejaVuSans-7a" x="1481.865234"/>
     <use xlink:href="#DejaVuSans-65" x="1534.355469"/>
     <use xlink:href="#DejaVuSans-64" x="1595.878906"/>
     <use xlink:href="#DejaVuSans-20" x="1659.355469"/>
     <use xlink:href="#DejaVuSans-54" x="1691.142578"/>
     <use xlink:href="#DejaVuSans-72" x="1737.476562"/>
     <use xlink:href="#DejaVuSans-61" x="1778.589844"/>
     <use xlink:href="#DejaVuSans-6a" x="1839.869141"/>
     <use xlink:href="#DejaVuSans-65" x="1867.652344"/>
     <use xlink:href="#DejaVuSans-63" x="1929.175781"/>
     <use xlink:href="#DejaVuSans-74" x="1984.15625"/>
     <use xlink:href="#DejaVuSans-6f" x="2023.365234"/>
     <use xlink:href="#DejaVuSans-72" x="2084.546875"/>
     <use xlink:href="#DejaVuSans-79" x="2125.660156"/>
     <use xlink:href="#DejaVuSans-20" x="2184.839844"/>
     <use xlink:href="#DejaVuSans-28" x="2216.626953"/>
     <use xlink:href="#DejaVuSans-56" x="2255.640625"/>
     <use xlink:href="#DejaVuSans-65" x="2316.298828"/>
     <use xlink:href="#DejaVuSans-63" x="2377.822266"/>
     <use xlink:href="#DejaVuSans-74" x="2432.802734"/>
     <use xlink:href="#DejaVuSans-6f" x="2472.011719"/>
     <use xlink:href="#DejaVuSans-72" x="2533.193359"/>
     <use xlink:href="#DejaVuSans-20" x="2574.306641"/>
     <use xlink:href="#DejaVuSans-50" x="2606.09375"/>
     <use xlink:href="#DejaVuSans-6c" x="2666.396484"/>
     <use xlink:href="#DejaVuSans-6f" x="2694.179688"/>
     <use xlink:href="#DejaVuSans-74" x="2755.361328"/>
     <use xlink:href="#DejaVuSans-29" x="2794.570312"/>
    </g>
   </g>
   <g id="line2d_30">
    <path d="M 274.830776 40.329301 
L 296.162146 140.679226 
" clip-path="url(#p5c08d99eeb)" style="fill: none; stroke-dasharray: 7.4,3.2; stroke-dashoffset: 0; stroke: #ff8c00; stroke-width: 2"/>
   </g>
   <g id="line2d_31">
    <path d="M 274.830776 40.329301 
L 407.799145 270.202898 
" clip-path="url(#p5c08d99eeb)" style="fill: none; stroke: #ffd700; stroke-width: 1.4; stroke-linecap: square"/>
   </g>
   <g id="line2d_32">
    <path d="M 274.830776 40.329301 
L 405.433825 200.346662 
" clip-path="url(#p5c08d99eeb)" style="fill: none; stroke: #ffd700; stroke-width: 1.4; stroke-linecap: square"/>
   </g>
   <g id="line2d_33">
    <path d="M 274.830776 40.329301 
L 359.503039 337.668476 
" clip-path="url(#p5c08d99eeb)" style="fill: none; stroke: #ffd700; stroke-width: 1.4; stroke-linecap: square"/>
   </g>
   <g id="line2d_34">
    <path d="M 274.830776 40.329301 
L 310.92485 375.224409 
" clip-path="url(#p5c08d99eeb)" style="fill: none; stroke: #ffd700; stroke-width: 1.4; stroke-linecap: square"/>
   </g>
   <g id="PathCollection_2">
    <defs>
     <path id="mf801c2a7d7" d="M 0 4.609772 
C 1.222526 4.609772 2.395145 4.124058 3.259601 3.259601 
C 4.124058 2.395145 4.609772 1.222526 4.609772 0 
C 4.609772 -1.222526 4.124058 -2.395145 3.259601 -3.259601 
C 2.395145 -4.124058 1.222526 -4.609772 0 -4.609772 
C -1.222526 -4.609772 -2.395145 -4.124058 -3.259601 -3.259601 
C -4.124058 -2.395145 -4.609772 -1.222526 -4.609772 0 
C -4.609772 1.222526 -4.124058 2.395145 -3.259601 3.259601 
C -2.395145 4.124058 -1.222526 4.609772 0 4.609772 
z
" style="stroke: #4169e1"/>
    </defs>
    <g clip-path="url(#p5c08d99eeb)">
     <use xlink:href="#mf801c2a7d7" x="274.830776" y="40.329301" style="fill: #4169e1; stroke: #4169e1"/>
    </g>
   </g>
   <g id="PathCollection_3">
    <defs>
     <path id="m5594e42395" d="M 0 4.1833 
C 1.109424 4.1833 2.173559 3.742521 2.95804 2.95804 
C 3.742521 2.173559 4.1833 1.109424 4.1833 0 
C 4.1833 -1.109424 3.742521 -2.173559 2.95804 -2.95804 
C 2.173559 -3.742521 1.109424 -4.1833 0 -4.1833 
C -1.109424 -4.1833 -2.173559 -3.742521 -2.95804 -2.95804 
C -3.742521 -2.173559 -4.1833 -1.109424 -4.1833 0 
C -4.1833 1.109424 -3.742521 2.173559 -2.95804 2.95804 
C -2.173559 3.742521 -1.109424 4.1833 0 4.1833 
z
" style="stroke: #dc143c"/>
    </defs>
    <g clip-path="url(#p5c08d99eeb)">
     <use xlink:href="#m5594e42395" x="296.162146" y="140.679226" style="fill: #dc143c; stroke: #dc143c"/>
    </g>
   </g>
   <g id="legend_1">
    <g id="patch_7">
     <path d="M 392.9275 90.5525 
L 502 90.5525 
Q 503.6 90.5525 503.6 88.9525 
L 503.6 31.04 
Q 503.6 29.44 502 29.44 
L 392.9275 29.44 
Q 391.3275 29.44 391.3275 31.04 
L 391.3275 88.9525 
Q 391.3275 90.5525 392.9275 90.5525 
z
" style="fill: #ffffff; opacity: 0.8; stroke: #cccccc; stroke-linejoin: miter"/>
    </g>
    <g id="line2d_35">
     <path d="M 394.5275 35.91875 
L 402.5275 35.91875 
L 410.5275 35.91875 
" style="fill: none; stroke: #000000; stroke-width: 2.2; stroke-linecap: square"/>
    </g>
    <g id="text_22">
     <!-- reference trajectory -->
     <g transform="translate(416.9275 38.71875)scale(0.08 -0.08)">
      <defs>
       <path id="DejaVuSans-66" d="M 2375 4863 
L 2375 4384 
L 1825 4384 
Q 1516 4384 1395 4259 
Q 1275 4134 1275 3809 
L 1275 3500 
L 2222 3500 
L 2222 3053 
L 1275 3053 
L 1275 0 
L 697 0 
L 697 3053 
L 147 3053 
L 147 3500 
L 697 3500 
L 697 3744 
Q 697 4328 969 4595 
Q 1241 4863 1831 4863 
L 2375 4863 
z
" transform="scale(0.015625)"/>
      </defs>
      <use xlink:href="#DejaVuSans-72"/>
      <use xlink:href="#DejaVuSans-65" x="38.863281"/>
      <use xlink:href="#DejaVuSans-66" x="100.386719"/>
      <use xlink:href="#DejaVuSans-65" x="135.591797"/>
      <use xlink:href="#DejaVuSans-72" x="197.115234"/>
      <use xlink:href="#DejaVuSans-65" x="235.978516"/>
      <use xlink:href="#DejaVuSans-6e" x="297.501953"/>
      <use xlink:href="#DejaVuSans-63" x="360.880859"/>
      <use xlink:href="#DejaVuSans-65" x="415.861328"/>
      <use xlink:href="#DejaVuSans-20" x="477.384766"/>
      <use xlink:href="#DejaVuSans-74" x="509.171875"/>
      <use xlink:href="#DejaVuSans-72" x="548.380859"/>
      <use xlink:href="#DejaVuSans-61" x="589.494141"/>
      <use xlink:href="#DejaVuSans-6a" x="650.773438"/>
      <use xlink:href="#DejaVuSans-65" x="678.556641"/>
      <use xlink:href="#DejaVuSans-63" x="740.080078"/>
      <use xlink:href="#DejaVuSans-74" x="795.060547"/>
      <use xlink:href="#DejaVuSans-6f" x="834.269531"/>
      <use xlink:href="#DejaVuSans-72" x="895.451172"/>
      <use xlink:href="#DejaVuSans-79" x="936.564453"/>
     </g>
    </g>
    <g id="PathCollection_4">
     <g>
      <use xlink:href="#m7a483ce079" x="402.5275" y="48.36125" style="fill: #ffa500; stroke: #ffa500"/>
     </g>
    </g>
    <g id="text_23">
     <!-- tags -->
     <g transform="translate(416.9275 50.46125)scale(0.08 -0.08)">
      <use xlink:href="#DejaVuSans-74"/>
      <use xlink:href="#DejaVuSans-61" x="39.208984"/>
      <use xlink:href="#DejaVuSans-67" x="100.488281"/>
      <use xlink:href="#DejaVuSans-73" x="163.964844"/>
     </g>
    </g>
    <g id="PathCollection_5">
     <g>
      <use xlink:href="#mf801c2a7d7" x="402.5275" y="60.10375" style="fill: #4169e1; stroke: #4169e1"/>
     </g>
    </g>
    <g id="text_24">
     <!-- robot -->
     <g transform="translate(416.9275 62.20375)scale(0.08 -0.08)">
      <defs>
       <path id="DejaVuSans-62" d="M 3116 1747 
Q 3116 2381 2855 2742 
Q 2594 3103 2138 3103 
Q 1681 3103 1420 2742 
Q 1159 2381 1159 1747 
Q 1159 1113 1420 752 
Q 1681 391 2138 391 
Q 2594 391 2855 752 
Q 3116 1113 3116 1747 
z
M 1159 2969 
Q 1341 3281 1617 3432 
Q 1894 3584 2278 3584 
Q 2916 3584 3314 3078 
Q 3713 2572 3713 1747 
Q 3713 922 3314 415 
Q 2916 -91 2278 -91 
Q 1894 -91 1617 61 
Q 1341 213 1159 525 
L 1159 0 
L 581 0 
L 581 4863 
L 1159 4863 
L 1159 2969 
z
" transform="scale(0.015625)"/>
      </defs>
      <use xlink:href="#DejaVuSans-72"/>
      <use xlink:href="#DejaVuSans-6f" x="38.863281"/>
      <use xlink:href="#DejaVuSans-62" x="100.044922"/>
      <use xlink:href="#DejaVuSans-6f" x="163.521484"/>
      <use xlink:href="#DejaVuSans-74" x="224.703125"/>
     </g>
    </g>
    <g id="PathCollection_6">
     <g>
      <use xlink:href="#m5594e42395" x="402.5275" y="71.84625" style="fill: #dc143c; stroke: #dc143c"/>
     </g>
    </g>
    <g id="text_25">
     <!-- nearest on reference -->
     <g transform="translate(416.9275 73.94625)scale(0.08 -0.08)">
      <use xlink:href="#DejaVuSans-6e"/>
      <use xlink:href="#DejaVuSans-65" x="63.378906"/>
      <use xlink:href="#DejaVuSans-61" x="124.902344"/>
      <use xlink:href="#DejaVuSans-72" x="186.181641"/>
      <use xlink:href="#DejaVuSans-65" x="225.044922"/>
      <use xlink:href="#DejaVuSans-73" x="286.568359"/>
      <use xlink:href="#DejaVuSans-74" x="338.667969"/>
      <use xlink:href="#DejaVuSans-20" x="377.876953"/>
      <use xlink:href="#DejaVuSans-6f" x="409.664062"/>
      <use xlink:href="#DejaVuSans-6e" x="470.845703"/>
      <use xlink:href="#DejaVuSans-20" x="534.224609"/>
      <use xlink:href="#DejaVuSans-72" x="566.011719"/>
      <use xlink:href="#DejaVuSans-65" x="604.875"/>
      <use xlink:href="#DejaVuSans-66" x="666.398438"/>
      <use xlink:href="#DejaVuSans-65" x="701.603516"/>
      <use xlink:href="#DejaVuSans-72" x="763.126953"/>
      <use xlink:href="#DejaVuSans-65" x="801.990234"/>
      <use xlink:href="#DejaVuSans-6e" x="863.513672"/>
      <use xlink:href="#DejaVuSans-63" x="926.892578"/>
      <use xlink:href="#DejaVuSans-65" x="981.873047"/>
     </g>
    </g>
    <g id="line2d_36">
     <path d="M 394.5275 82.88875 
L 402.5275 82.88875 
L 410.5275 82.88875 
" style="fill: none; stroke-dasharray: 7.4,3.2; stroke-dashoffset: 0; stroke: #ff8c00; stroke-width: 2"/>
    </g>
    <g id="text_26">
     <!-- distance link -->
     <g transform="translate(416.9275 85.68875)scale(0.08 -0.08)">
      <defs>
       <path id="DejaVuSans-6b" d="M 581 4863 
L 1159 4863 
L 1159 1991 
L 2875 3500 
L 3609 3500 
L 1753 1863 
L 3688 0 
L 2938 0 
L 1159 1709 
L 1159 0 
L 581 0 
L 581 4863 
z
" transform="scale(0.015625)"/>
      </defs>
      <use xlink:href="#DejaVuSans-64"/>
      <use xlink:href="#DejaVuSans-69" x="63.476562"/>
      <use xlink:href="#DejaVuSans-73" x="91.259766"/>
      <use xlink:href="#DejaVuSans-74" x="143.359375"/>
      <use xlink:href="#DejaVuSans-61" x="182.568359"/>
      <use xlink:href="#DejaVuSans-6e" x="243.847656"/>
      <use xlink:href="#DejaVuSans-63" x="307.226562"/>
      <use xlink:href="#DejaVuSans-65" x="362.207031"/>
      <use xlink:href="#DejaVuSans-20" x="423.730469"/>
      <use xlink:href="#DejaVuSans-6c" x="455.517578"/>
      <use xlink:href="#DejaVuSans-69" x="483.300781"/>
      <use xlink:href="#DejaVuSans-6e" x="511.083984"/>
      <use xlink:href="#DejaVuSans-6b" x="574.462891"/>
     </g>
    </g>
   </g>
   <g id="patch_8">
    <path d="M 285.898711 56.560971 
L 281.509023 53.219825 
L 282.842237 52.310743 
L 274.722678 40.40301 
L 274.938875 40.255591 
L 283.058434 52.163324 
L 284.391648 51.254241 
z
" clip-path="url(#p5c08d99eeb)" style="fill: #4169e1; stroke: #4169e1; stroke-linejoin: miter"/>
   </g>
   <g id="patch_9">
    <path d="M 314.999088 135.099269 
L 310.476614 138.258359 
L 310.018295 136.711157 
L 296.199307 140.804675 
L 296.124985 140.553778 
L 309.943973 136.460259 
L 309.485655 134.913057 
z
" clip-path="url(#p5c08d99eeb)" style="fill: #dc143c; stroke: #dc143c; stroke-linejoin: miter"/>
   </g>
   <g id="text_27">
    <g id="patch_10">
     <path d="M 71.4706 53.770344 
L 152.820756 53.770344 
Q 155.070756 53.770344 155.070756 51.520344 
L 155.070756 32.732 
Q 155.070756 30.482 152.820756 30.482 
L 71.4706 30.482 
Q 69.2206 30.482 69.2206 32.732 
L 69.2206 51.520344 
Q 69.2206 53.770344 71.4706 53.770344 
z
" style="fill: #ffffff; opacity: 0.9; stroke: #808080; stroke-linejoin: miter"/>
    </g>
    <!-- d=0.588 m -->
    <g transform="translate(71.4706 39.570594)scale(0.09 -0.09)">
     <defs>
      <path id="DejaVuSans-3d" d="M 678 2906 
L 4684 2906 
L 4684 2381 
L 678 2381 
L 678 2906 
z
M 678 1631 
L 4684 1631 
L 4684 1100 
L 678 1100 
L 678 1631 
z
" transform="scale(0.015625)"/>
     </defs>
     <use xlink:href="#DejaVuSans-64"/>
     <use xlink:href="#DejaVuSans-3d" x="63.476562"/>
     <use xlink:href="#DejaVuSans-30" x="147.265625"/>
     <use xlink:href="#DejaVuSans-2e" x="210.888672"/>
     <use xlink:href="#DejaVuSans-35" x="242.675781"/>
     <use xlink:href="#DejaVuSans-38" x="306.298828"/>
     <use xlink:href="#DejaVuSans-38" x="369.921875"/>
     <use xlink:href="#DejaVuSans-20" x="433.544922"/>
     <use xlink:href="#DejaVuSans-6d" x="465.332031"/>
    </g>
    <!-- angle=-72.21 deg -->
    <g transform="translate(71.4706 49.648625)scale(0.09 -0.09)">
     <defs>
      <path id="DejaVuSans-2d" d="M 313 2009 
L 1997 2009 
L 1997 1497 
L 313 1497 
L 313 2009 
z
" transform="scale(0.015625)"/>
     </defs>
     <use xlink:href="#DejaVuSans-61"/>
     <use xlink:href="#DejaVuSans-6e" x="61.279297"/>
     <use xlink:href="#DejaVuSans-67" x="124.658203"/>
     <use xlink:href="#DejaVuSans-6c" x="188.134766"/>
     <use xlink:href="#DejaVuSans-65" x="215.917969"/>
     <use xlink:href="#DejaVuSans-3d" x="277.441406"/>
     <use xlink:href="#DejaVuSans-2d" x="361.230469"/>
     <use xlink:href="#DejaVuSans-37" x="397.314453"/>
     <use xlink:href="#DejaVuSans-32" x="460.9375"/>
     <use xlink:href="#DejaVuSans-2e" x="524.560547"/>
     <use xlink:href="#DejaVuSans-32" x="556.347656"/>
     <use xlink:href="#DejaVuSans-31" x="619.970703"/>
     <use xlink:href="#DejaVuSans-20" x="683.59375"/>
     <use xlink:href="#DejaVuSans-64" x="715.380859"/>
     <use xlink:href="#DejaVuSans-65" x="778.857422"/>
     <use xlink:href="#DejaVuSans-67" x="840.380859"/>
    </g>
   </g>
  </g>
 </g>
 <defs>
  <clipPath id="p5c08d99eeb">
   <rect x="62.57" y="25.44" width="445.03" height="364.6"/>
  </clipPath>
 </defs>
</svg>
